<?xml version="1.0" encoding="UTF-8"?>
<svg width="29px" height="24px" viewBox="0 0 29 24" version="1.1" xmlns="http://www.w3.org/2000/svg" xmlns:xlink="http://www.w3.org/1999/xlink">
    <!-- Generator: Sketch 64 (93537) - https://sketch.com -->
    <title>2223615</title>
    <desc>Created with Sketch.</desc>
    <g id="Page-1" stroke="none" stroke-width="1" fill="none" fill-rule="evenodd">
        <g id="whalestreet-landing-copy" transform="translate(-790.000000, -379.000000)" fill="#FF0006" fill-rule="nonzero">
            <g id="Group-9" transform="translate(596.000000, 358.000000)">
                <g id="Group-8" transform="translate(26.000000, 11.000000)">
                    <g id="2223615" transform="translate(182.500000, 22.000000) scale(-1, 1) translate(-182.500000, -22.000000) translate(168.000000, 10.000000)">
                        <path d="M27.7916667,10.8001609 L3.68602083,10.8001609 L12.9164792,2.0690673 C13.3998125,1.61187287 13.4185417,0.852282132 12.9581667,0.372287983 C12.4983958,-0.107106174 11.7335208,-0.12630594 11.2495833,0.330888487 L0.708083333,10.3027669 C0.2519375,10.7563614 0,11.3587541 0,12.0001463 C0,12.6409384 0.2519375,13.2439311 0.729229167,13.7173253 L11.2501875,23.668804 C11.484,23.8902013 11.7836667,24 12.0833333,24 C12.4023333,24 12.7213333,23.8752015 12.9587708,23.6274045 C13.4191458,23.1474104 13.4004167,22.3884196 12.9170833,21.9312252 L3.64795833,13.2001316 L27.7916667,13.2001316 C28.4586667,13.2001316 29,12.6625382 29,12.0001463 C29,11.3377543 28.4586667,10.8001609 27.7916667,10.8001609 L27.7916667,10.8001609 Z" id="Path"></path>
                    </g>
                </g>
            </g>
        </g>
    </g>
</svg>