<?xml version="1.0" encoding="UTF-8"?>
<svg width="64px" height="53px" viewBox="0 0 64 53" version="1.1" xmlns="http://www.w3.org/2000/svg" xmlns:xlink="http://www.w3.org/1999/xlink">
    <!-- Generator: Sketch 64 (93537) - https://sketch.com -->
    <title>2223615</title>
    <desc>Created with Sketch.</desc>
    <g id="Page-1" stroke="none" stroke-width="1" fill="none" fill-rule="evenodd">
        <g id="whalestreet-landing-copy" transform="translate(-1139.000000, -1575.000000)" fill="#FFFFFF" fill-rule="nonzero">
            <g id="2223615" transform="translate(1171.000000, 1601.500000) scale(-1, 1) translate(-1171.000000, -1601.500000) translate(1139.000000, 1575.000000)">
                <path d="M61.3333333,23.8503553 L8.13466667,23.8503553 L28.5053333,4.56919029 C29.572,3.5595526 29.6133333,1.88212304 28.5973333,0.822135962 C27.5826667,-0.236526135 25.8946667,-0.278925618 24.8266667,0.730712076 L1.56266667,22.7519437 C0.556,23.7536315 0,25.0839153 0,26.500323 C0,27.9154057 0.556,29.2470145 1.60933333,30.2924268 L24.828,52.2686089 C25.344,52.757528 26.0053333,53 26.6666667,53 C27.3706667,53 28.0746667,52.7244034 28.5986667,52.177185 C29.6146667,51.1171979 29.5733333,49.4410934 28.5066667,48.4314557 L8.05066667,29.1502907 L61.3333333,29.1502907 C62.8053333,29.1502907 64,27.9631052 64,26.500323 C64,25.0375408 62.8053333,23.8503553 61.3333333,23.8503553 L61.3333333,23.8503553 Z" id="Path"></path>
            </g>
        </g>
    </g>
</svg>